<svg xmlns="http://www.w3.org/2000/svg" width="26" height="26" id="fitness"><g fill="#fff" transform="translate(5 -1031.863)"><circle cx="8" cy="1044.863" r="13" fill="#ffa40b" fill-rule="evenodd"></circle><path fill="#ff7712" style="line-height:normal;text-indent:0;text-align:start;text-decoration-line:none;text-decoration-style:solid;text-decoration-color:#000;text-transform:none;block-progression:tb;isolation:auto;mix-blend-mode:normal" d="M15.205 25.81a13 13 0 0 0 .004 0 13 13 0 0 0 1.268-.285 13 13 0 0 0 1.234-.408 13 13 0 0 0 1.185-.531 13 13 0 0 0 1.127-.647 13 13 0 0 0 1.057-.755 13 13 0 0 0 .977-.858 13 13 0 0 0 .886-.951 13 13 0 0 0 .786-1.035 13 13 0 0 0 .68-1.108 13 13 0 0 0 .566-1.17 13 13 0 0 0 .445-1.22 13 13 0 0 0 .32-1.26 13 13 0 0 0 .059-.39l-6.082-6.083-2.828-2.828a1.495 1.495 0 0 0-1.06-.435c-.386 0-.77.145-1.061.435a1.508 1.508 0 0 0 0 2.121l.353.354-6.363 6.363-.354-.351a1.51 1.51 0 0 0-2.123 0 1.508 1.508 0 0 0 0 2.12l2.83 2.829 6.094 6.094z" color="#000" font-family="sans-serif" font-weight="400" transform="translate(-5 1031.863)"></path><path style="line-height:normal;text-indent:0;text-align:start;text-decoration-line:none;text-decoration-style:solid;text-decoration-color:#000;text-transform:none;block-progression:tb;isolation:auto;mix-blend-mode:normal" d="M10.676 1c-.385 0-.77.145-1.06.436a1.508 1.508 0 0 0 0 2.12l.353.354-6.364 6.363-.353-.351a1.51 1.51 0 0 0-2.123 0 1.508 1.508 0 0 0 0 2.121l2.83 2.828c.581.582 1.54.582 2.121 0a1.508 1.508 0 0 0 0-2.121l-.353-.354 6.363-6.365.353.354c.582.581 1.54.581 2.121 0a1.508 1.508 0 0 0 0-2.121l-2.828-2.828A1.495 1.495 0 0 0 10.676 1Zm0 .992c.126 0 .252.05.353.15l2.828 2.829a.488.488 0 0 1 0 .707.488.488 0 0 1-.707 0l-.353-.354-2.121-2.12-.354-.354a.488.488 0 0 1 0-.707.497.497 0 0 1 .354-.15zm0 2.625.707.707L5.02 11.69l-.707-.707 6.363-6.365Zm-8.487 5.86a.5.5 0 0 1 .354.152l.353.353-.013.014.353.354 1.77 1.767.014-.013.353.353a.488.488 0 0 1 0 .707.488.488 0 0 1-.707 0l-2.83-2.828a.488.488 0 0 1 0-.707.5.5 0 0 1 .353-.152z" color="#000" font-family="sans-serif" font-weight="400" overflow="visible" transform="translate(.153 1036.71)"></path></g></svg>